<svg height="512" viewBox="0 0 64 64" width="512" xmlns="http://www.w3.org/2000/svg" xmlns:xlink="http://www.w3.org/1999/xlink"><linearGradient id="New_Gradient_Swatch" gradientUnits="userSpaceOnUse" x1="32" x2="32" y1="64.344" y2="-.193"><stop offset="0" stop-color="#e93e3a"/><stop offset=".35" stop-color="#ed683c"/><stop offset=".7" stop-color="#f3903f"/><stop offset="1" stop-color="#fdc70c"/></linearGradient><linearGradient id="New_Gradient_Swatch-3" x1="29.5" x2="29.5" xlink:href="#New_Gradient_Swatch" y1="64.344" y2="-.193"/><g id="Gauge-Manometer-Measurement-Temperature-Danger"><path d="m32 6a26 26 0 1 0 26 26 26.03 26.03 0 0 0 -26-26zm0 50a24 24 0 1 1 24-24 24.028 24.028 0 0 1 -24 24z" fill="url(#New_Gradient_Swatch)"/><path d="m53 31h-2.051a18.892 18.892 0 0 0 -4.849-11.688l1.454-1.454-1.414-1.414-1.452 1.456a18.892 18.892 0 0 0 -11.688-4.849v-2.051h-2v2.051a18.892 18.892 0 0 0 -11.688 4.849l-1.454-1.454-1.414 1.414 1.456 1.452a18.892 18.892 0 0 0 -4.849 11.688h-2.051v2h2.046a18.86 18.86 0 0 0 4.829 11.711l-1.431 1.431 1.414 1.414 2.119-2.119a1 1 0 0 0 0-1.413 17.047 17.047 0 0 1 -3.58-5.281l1.849-.673-.684-1.88-1.855.675a16.868 16.868 0 0 1 .4-10.846l1.783.793.814-1.827-1.787-.795a17.087 17.087 0 0 1 7.807-7.531l.73 1.808 1.854-.749-.733-1.818a16.748 16.748 0 0 1 10.85 0l-.733 1.815 1.854.749.73-1.808a17.087 17.087 0 0 1 7.807 7.531l-1.787.795.814 1.827 1.783-.793a16.868 16.868 0 0 1 .4 10.846l-1.855-.675-.684 1.88 1.849.673a17.047 17.047 0 0 1 -3.58 5.281 1 1 0 0 0 0 1.413l2.119 2.119 1.414-1.414-1.431-1.431a18.86 18.86 0 0 0 4.829-11.708h2.046z" fill="url(#New_Gradient_Swatch)"/><path d="m32 35a3 3 0 0 0 3-3 2.951 2.951 0 0 0 -.3-1.285l2.008-2.008-1.414-1.414-2.009 2.007a2.951 2.951 0 0 0 -1.285-.3 3 3 0 0 0 -3 3 2.951 2.951 0 0 0 .3 1.285l-7.008 7.008 1.414 1.414 7.009-7.007a2.951 2.951 0 0 0 1.285.3z" fill="url(#New_Gradient_Swatch-3)"/><g fill="url(#New_Gradient_Swatch)"><path d="m38 43h-12a1 1 0 0 0 -1 1v6a1 1 0 0 0 1 1h12a1 1 0 0 0 1-1v-6a1 1 0 0 0 -1-1zm-1 6h-10v-4h10z"/><path d="m32 2a30 30 0 1 0 30 30 30.034 30.034 0 0 0 -30-30zm0 58a28 28 0 1 1 28-28 28.032 28.032 0 0 1 -28 28z"/></g></g></svg>